<?xml version="1.0" standalone="no"?>
<!DOCTYPE svg PUBLIC "-//W3C//DTD SVG 1.1//EN" "http://www.w3.org/Graphics/SVG/1.1/DTD/svg11.dtd" >
<svg xmlns="http://www.w3.org/2000/svg" xmlns:xlink="http://www.w3.org/1999/xlink" version="1.1">
<metadata></metadata>
<defs>
<font id="somaticrounded" horiz-adv-x="1189" >
<font-face units-per-em="2048" ascent="1638" descent="-410" />
<missing-glyph horiz-adv-x="563" />
<glyph horiz-adv-x="0" />
<glyph horiz-adv-x="682" />
<glyph unicode=" "  horiz-adv-x="563" />
<glyph unicode="&#x09;" horiz-adv-x="563" />
<glyph unicode="&#xa0;" horiz-adv-x="563" />
<glyph unicode="!" horiz-adv-x="487" d="M113 125q0 -52 36 -88.5t87 -36.5h14q52 0 88.5 36t36.5 89q0 51 -36.5 87t-88.5 36h-14q-51 0 -87 -36t-36 -87zM113 520q0 -51 36 -87t87 -36q52 0 88 36t36 87v910q0 52 -36 88t-88 36q-51 0 -87 -36t-36 -88v-910z" />
<glyph unicode="&#x22;" horiz-adv-x="825" d="M102 1053q0 -51 36 -87t87 -36t87 36t36 87v274q0 51 -36 87t-87 36t-87 -36t-36 -87v-274zM477 1055q0 -51 36 -87t87 -36t87 36t36 87v274q0 51 -36 87t-87 36t-87 -36t-36 -87v-274z" />
<glyph unicode="&#x26;" horiz-adv-x="1280" d="M104 563q10 118 64 213.5t143 157.5q-30 39 -39 59q-70 137 -22.5 283t184.5 217q138 71 283 23t215 -185q21 -41 7 -85t-56 -66q-41 -22 -85.5 -7t-64.5 56q-28 54 -85 72.5t-111 -9.5t-73 -85t9 -111q10 -23 40.5 -45t64.5 -33h2q34 -8 58 -33.5t28 -60.5 q6 -47 -22.5 -84t-74.5 -43q-25 -3 -50 -9.5t-58.5 -24.5t-59.5 -43.5t-46 -71t-25 -103.5q-6 -71 21.5 -139t82.5 -115q52 -46 116.5 -64t127.5 -4q50 11 89 32t62 48t36 53t20 54q23 89 -11 155l-141 -123q-28 -28 -74 -28q-51 0 -84 39q-31 34 -27.5 80t38.5 77l405 357 q34 30 80.5 26.5t77.5 -37.5q31 -35 28 -81.5t-38 -77.5l-95 -82q41 -53 60 -129t12 -160q-7 -66 -32.5 -129.5t-70.5 -123t-119 -104.5t-167 -65q-53 -12 -106 -12q-187 0 -334 129q-95 83 -143.5 200t-39.5 242z" />
<glyph unicode="'" horiz-adv-x="430" d="M92 1053q0 -51 36 -87t87 -36t87 36t36 87v274q0 51 -36 87t-87 36t-87 -36t-36 -87v-274z" />
<glyph unicode="(" horiz-adv-x="628" d="M107 629.5q9 -129.5 56.5 -283.5t135.5 -295q35 -59 104 -59q37 0 66 20q43 26 54 75.5t-15 92.5q-56 90 -92 187.5t-51.5 182.5t-15 176t9 161t29 146t36 121.5t39 96.5t30 63.5t15.5 28.5q26 43 14 92.5t-55 75.5t-92.5 14t-75.5 -55q-11 -18 -29 -51.5t-53.5 -121 t-61.5 -180.5t-41.5 -225.5t-6.5 -262z" />
<glyph unicode=")" horiz-adv-x="643" d="M104 1444.5q-11 -49.5 17 -92.5q73 -109 114.5 -229.5t53.5 -222t3.5 -210.5t-25 -183.5t-44 -152.5t-40.5 -106t-27 -56q-2 -3 -2 -4q-25 -44 -11 -92t58 -73q43 -25 92 -12t74 57q13 23 27.5 53t49 121.5t57 183t35.5 226t0 262.5t-64.5 281t-143.5 292 q-17 29 -46.5 43.5t-62.5 11.5q-33 3 -61 -22q-43 -26 -54 -75.5z" />
<glyph unicode="," horiz-adv-x="471" d="M123 -123q0 -51 36 -87t87 -36t87 36t36 87v275q0 51 -36 86.5t-87 35.5t-87 -35.5t-36 -86.5v-275z" />
<glyph unicode="-" d="M102 504q0 -55 39 -94t95 -39h716q55 0 94 38.5t41 94.5q-2 56 -41 94.5t-94 38.5h-716q-56 0 -95 -39t-39 -94z" />
<glyph unicode="." horiz-adv-x="471" d="M102 129q0 -55 36 -93t89 -38h17q51 0 88 38t37 93t-37 95t-88 40h-17q-52 0 -88.5 -39.5t-36.5 -95.5z" />
<glyph unicode="/" horiz-adv-x="1009" d="M111.5 73q18.5 -47 64.5 -69q27 -10 49 -10q36 0 67 20.5t46 55.5l559 1290q20 47 1.5 94.5t-64.5 67.5q-47 20 -94.5 1t-67.5 -65l-559 -1292q-20 -46 -1.5 -93z" />
<glyph unicode="0" horiz-adv-x="1222" d="M102 440q0 -14 2 -20q29 -180 175 -300t335 -120q184 0 327.5 120t174.5 300q0 3 1 9.5t1 10.5l2 613q0 23 -6 41q-15 194 -159.5 327t-340.5 133q-106 0 -203 -42.5t-169 -120.5q-138 -156 -138 -408q0 -90 -1 -271.5t-1 -271.5zM356 453q0 49 4.5 314t4.5 286 q0 103 73 176.5t176 73.5t175.5 -73.5t72.5 -176.5l2 -600q-17 -86 -88 -142.5t-162 -56.5q-92 0 -166.5 57t-91.5 142z" />
<glyph unicode="1" horiz-adv-x="622" d="M-51 1282q0 52 37.5 89.5t89.5 37.5q36 0 85 27t81 69q0 2 2 2q0 4 4 4q0 3 4 7l4 4l4 4q1 0 2 1t2 1q4 4 6 4l4 4q3 0 7 4q4 0 6 2t4 2q2 2 6 2q2 2 6 2q2 2 6 2q1 0 3 1t3 1h7q2 2 6 2h4h8h2h2h8h6q5 0 7 -2h6q1 0 3 -1t3 -1t3 -1t3 -1l4 -2q1 0 3 -1t3 -1t3 -1t3 -1 l7 -4q1 0 2 -1t2 -1q4 -4 6 -4l2 -2l2 -2l6 -4l4 -4l4 -4q1 -1 2 -3.5t2 -3.5q1 0 2 -1t2 -1q0 -2 4 -6l3 -4l4 -6q0 -1 1 -3t1 -3q2 -2 2 -6l4 -6q0 -3 2 -5v-6q2 -2 2 -6q0 -1 1 -3t1 -3v-6v-6q0 -1 1 -3t1 -3v-2v-1303q0 -53 -37.5 -90t-89.5 -37t-89.5 37t-37.5 90v1057 q-73 -29 -139 -29q-52 0 -89.5 37.5t-37.5 89.5z" />
<glyph unicode="2" horiz-adv-x="1218" d="M50 1271.5q6 46.5 40 88t87.5 77t103.5 58.5t86 33q94 24 189 12.5t181 -55.5q154 -79 226 -228q74 -151 30 -299q-32 -109 -164 -260q-365 -427 -393 -448h447q37 0 55 -2q34 -3 63 -19q28 -15 45.5 -43.5t16.5 -60.5q-2 -31 -18.5 -59t-43.5 -43q-37 -19 -116 -19h-662 q-63 0 -92 12q-38 17 -57.5 58.5t-7.5 81.5q9 27 51 80q294 353 538 630q30 33 48 56.5t35.5 59t21.5 69.5q7 64 -30 123.5t-99 91.5q-76 40 -168 29.5t-154 -68.5q-7 -6 -24.5 -24.5t-31 -30t-28.5 -17.5q-34 -15 -71.5 -8t-63.5 33q-46 45 -40 91.5z" />
<glyph unicode="3" horiz-adv-x="1173" d="M72.5 307.5q7.5 51.5 48.5 83.5q43 31 94.5 24t83.5 -48q36 -52 96.5 -80.5t130.5 -28.5q116 0 179 66.5t63 154.5q0 83 -53 139q-66 66 -189 66q-50 0 -86 34t-39 83v14q0 53 36.5 90t88.5 37q48 0 84 19t54 50t26 61.5t8 60.5q0 77 -41 124q-44 50 -131 50 q-56 0 -103 -27.5t-67 -71.5q-22 -47 -71.5 -65t-96.5 4t-65 71.5t4 96.5q53 111 161.5 177.5t237.5 66.5q202 0 320 -136q106 -122 106 -290q0 -170 -106 -297q36 -28 47 -41q127 -130 127 -316q0 -189 -127 -325q-139 -150 -367 -150q-127 0 -241.5 56.5t-188.5 154.5 q-31 41 -23.5 92.5z" />
<glyph unicode="4" horiz-adv-x="1134" d="M61 819l209 629q17 50 63 72.5t93 5.5q47 -15 70 -60.5t8 -95.5l-158 -467h391v504q0 51 36 87t87 36t86 -36t35 -87v-1292q0 -51 -35 -86t-86 -35t-87 35t-36 86v542h-561q-59 0 -98 52q-38 55 -17 110z" />
<glyph unicode="5" horiz-adv-x="1146" d="M105.5 298q-7.5 -52 23.5 -93q74 -97 187.5 -152t240.5 -55q240 0 387 156q131 140 131 342q0 206 -129 350q-148 166 -387 168l-174 2v284h469q52 0 88.5 37t36.5 88q0 53 -36.5 90t-88.5 37h-596q-52 0 -88.5 -37t-36.5 -90v-534q0 -52 35.5 -90.5t87.5 -38.5 q317 -4 301 0q61 -1 109.5 -19.5t77.5 -46.5t48 -64.5t26 -70t7 -65.5q-1 -45 -15.5 -87t-44.5 -79t-84 -59.5t-124 -22.5q-69 0 -129 28.5t-98 79.5q-31 41 -83 48.5t-93 -23.5t-48.5 -83z" />
<glyph unicode="6" horiz-adv-x="1183" d="M102 500q0 118 31 184l359 784q22 46 69 63.5t94 -3.5q46 -20 64 -68t-4 -94l-176 -387q20 2 59 2q206 -3 344 -147q142 -145 139 -349q-2 -98 -40.5 -187.5t-108.5 -156.5q-67 -67 -155.5 -103t-184.5 -36h-6q-133 2 -245 69.5t-176.5 181.5t-62.5 247zM348 496 q0 -100 70 -172.5t170 -73.5q105 0 172 67q74 71 74 172q3 99 -68 173q-70 70 -172 73h-2q-98 0 -170 -69q-71 -71 -74 -170z" />
<glyph unicode="7" horiz-adv-x="1099" d="M51 1423q0 -53 36.5 -89t88.5 -36h541l-576 -1120q-24 -46 -8 -95.5t62 -74.5q27 -12 57 -12q35 0 65.5 17.5t47.5 49.5l669 1303q33 64 -4 123q-36 61 -106 61h-748q-52 0 -88.5 -37t-36.5 -90z" />
<glyph unicode="8" horiz-adv-x="1183" d="M102 489q0 115 50.5 215.5t138.5 169.5q-107 120 -107 273q0 169 119.5 288t288.5 119q167 0 286 -119t119 -288q0 -151 -104 -270q87 -68 137.5 -170.5t50.5 -217.5q0 -133 -65.5 -245.5t-178 -178t-245.5 -65.5t-246 65.5t-178.5 178t-65.5 245.5zM346 489 q0 -101 72.5 -173t173.5 -72t172.5 72t71.5 173t-71.5 172.5t-172.5 71.5t-173.5 -71.5t-72.5 -172.5zM430 1147q0 -66 47.5 -114t114.5 -48q66 0 113 48t47 114q0 67 -47 114.5t-113 47.5q-68 0 -115 -47.5t-47 -114.5z" />
<glyph unicode="9" horiz-adv-x="1144" d="M51 1061q0 134 67 248t181 180.5t248 66.5t248 -66.5t180.5 -180.5t66.5 -248q0 -77 -21.5 -147t-62.5 -162q-72 -169 -81 -187l-215 -489q-15 -35 -46.5 -54.5t-68.5 -19.5q-22 0 -49 10q-47 22 -66.5 70t2.5 94l172 393q-18 -2 -59 -2q-134 0 -248 66.5t-181 180 t-67 247.5zM301 1061q0 -101 72.5 -172.5t173.5 -71.5t173.5 71.5t72.5 172.5t-72.5 173.5t-173.5 72.5t-173.5 -72.5t-72.5 -173.5z" />
<glyph unicode=":" horiz-adv-x="479" d="M102 129q0 -55 36 -93t89 -38h17q51 0 88 38t37 93t-37 95t-88 40h-17q-52 0 -88.5 -39.5t-36.5 -95.5zM111 891q0 -55 36 -93t89 -38h16q51 0 88 38t37 93t-37 95t-88 40h-16q-52 0 -88.5 -39.5t-36.5 -95.5z" />
<glyph unicode=";" horiz-adv-x="471" d="M102 891q0 -55 36 -93t89 -38h17q51 0 88 38t37 93t-37 95t-88 40h-17q-52 0 -88.5 -39.5t-36.5 -95.5zM115 -123q0 -51 36 -87t87 -36t86.5 36t35.5 87v275q0 51 -35.5 86.5t-86.5 35.5t-87 -35.5t-36 -86.5v-275z" />
<glyph unicode="?" horiz-adv-x="931" d="M53 1280q-5 50 27 88q65 80 157 124t193 44q186 0 318.5 -132t132.5 -319q0 -157 -96 -278t-244 -158v-129q0 -51 -35.5 -87t-87.5 -36q-50 0 -85.5 36t-35.5 87v236q0 51 35.5 87t85.5 36h6h6q86 0 146.5 60t60.5 146t-60.5 146.5t-146.5 60.5q-100 0 -162 -75 q-32 -40 -82 -45.5t-90 26.5q-38 32 -43 82zM291 133q0 50 35 85.5t86 35.5h14q51 0 86 -35.5t35 -85.5q0 -52 -35 -87.5t-86 -35.5h-14q-51 0 -86 35.5t-35 87.5z" />
<glyph unicode="A" horiz-adv-x="1662" d="M100 73q-8 21 -7 43q0 25 11 50l598 1292q15 32 44.5 51t64.5 21h2q73 0 111 -68l645 -1292q13 -27 13 -54q0 -20 -6 -40q-16 -48 -63 -70q-26 -14 -54 -14q-19 0 -38 6q-48 16 -71 61l-160 320h-2h-701q-10 0 -14 2l-147 -318q-15 -33 -45.5 -52t-65.5 -19q-27 0 -51 12 q-46 22 -64 69zM586 625h481l-250 499z" />
<glyph unicode="B" horiz-adv-x="1202" d="M92 129v1292q0 51 35.5 86t85.5 35v8h328q189 0 318.5 -126t129.5 -310q0 -147 -92 -270q102 -61 162.5 -162t60.5 -217q0 -125 -60.5 -233t-164 -172t-223.5 -64h-465v12q-47 3 -81 38.5t-34 82.5zM334 238h338q82 0 144.5 69t62.5 158q0 82 -67.5 142.5t-156.5 60.5 h-75h-39h-207v-430zM334 909h233q76 11 128.5 69.5t52.5 135.5q0 83 -59 139t-148 56h-207v-400z" />
<glyph unicode="C" horiz-adv-x="1519" d="M92 778q0 -158 61.5 -302t165.5 -248t247.5 -166t301.5 -62q147 0 284.5 54.5t246.5 154.5q39 36 39 90q0 48 -33 84q-35 37 -86 39h-5q-48 0 -83 -33q-150 -141 -363 -141q-144 0 -266 71t-193 193t-71 266t71 266.5t193 193.5t266 71q207 0 357 -135q34 -32 81 -32h6 q50 2 85 40q33 35 33 82v7q-2 51 -41 85q-107 96 -241.5 147t-279.5 51q-158 0 -301.5 -61.5t-247.5 -165.5t-165.5 -247.5t-61.5 -301.5z" />
<glyph unicode="D" horiz-adv-x="1396" d="M92 125v1296q0 51 35.5 86t87.5 35h322q158 0 302 -61.5t248 -165.5t166 -247.5t62 -301.5t-62 -302t-166 -248t-248 -166t-302 -62h-5l-321 12q-51 1 -85 37.5t-34 87.5zM338 242l201 -6q144 0 266 71t193 193t71 266t-72 266t-194.5 193t-265.5 71h-199v-1054z" />
<glyph unicode="E" horiz-adv-x="1075" d="M92 121v1311q0 51 35 86.5t86 35.5h709q51 0 86.5 -35.5t35.5 -86.5t-35.5 -87t-86.5 -36h-586v-416h586q51 0 86.5 -35.5t35.5 -87.5q0 -51 -35.5 -86t-86.5 -35h-586v-405h586q51 0 86.5 -36t35.5 -87t-35.5 -86t-86.5 -35h-709q-51 0 -86 35t-35 86z" />
<glyph unicode="F" horiz-adv-x="1075" d="M92 133v1311q0 51 35 87t86 36h709q51 0 86.5 -36t35.5 -87t-35.5 -87t-86.5 -36h-586v-416h586q51 0 86.5 -35.5t35.5 -87.5q0 -51 -35.5 -85.5t-86.5 -34.5h-586v-529q0 -51 -36 -86t-87 -35t-86 35t-35 86z" />
<glyph unicode="G" horiz-adv-x="1564" d="M0 780q0 158 61.5 301.5t165.5 247.5t248.5 165.5t302.5 61.5q149 0 286.5 -54.5t246.5 -155.5q38 -36 38 -90q0 -51 -34 -87q-35 -37 -86 -39h-5q-48 0 -83 33q-73 70 -167.5 108t-195.5 38q-144 0 -265.5 -71t-192 -193t-70.5 -265q0 -146 67 -268t184 -192t257 -70 q197 0 332.5 108.5t166.5 286.5h-268q-53 0 -89 36.5t-36 88.5q0 51 36.5 87t88.5 36h397q52 0 88.5 -36t36.5 -87v-10q2 -6 2 -23q0 -210 -97 -378t-269.5 -262.5t-388.5 -94.5q-210 0 -384 103t-274 281.5t-100 393.5z" />
<glyph unicode="H" horiz-adv-x="1439" d="M92 174v1305q0 53 36 89t89 36q51 0 88 -36.5t37 -88.5v-539h756v539q0 53 36 89t89 36q51 0 88 -36.5t37 -88.5v-1305q0 -52 -37 -88.5t-88 -36.5q-53 0 -89 36.5t-36 88.5v518h-756v-518q0 -52 -37 -88.5t-88 -36.5q-53 0 -89 36.5t-36 88.5z" />
<glyph unicode="I" horiz-adv-x="555" d="M154 127q0 -52 35.5 -88.5t86.5 -36.5q52 0 88.5 36t36.5 89v1305q0 52 -36 88t-89 36q-51 0 -86.5 -36t-35.5 -88v-1305z" />
<glyph unicode="J" horiz-adv-x="1058" d="M92 430q0 -159 101 -278q63 -75 151 -116.5t186 -41.5q180 0 308.5 128t128.5 308v989q0 54 -37.5 91.5t-91.5 37.5q-53 0 -91 -37.5t-38 -91.5v-989q0 -74 -53 -127t-126 -53q-84 0 -139 65q-41 50 -41 115q0 54 -37.5 91.5t-91.5 37.5t-91.5 -37.5t-37.5 -91.5z" />
<glyph unicode="K" horiz-adv-x="1193" d="M92 121v1311q0 51 35.5 86.5t87.5 35.5q51 0 86 -35.5t35 -86.5v-508l536 561q35 37 86 38h3q49 0 83 -34q39 -36 39 -90q0 -48 -34 -84l-537 -559l580 -543q38 -35 41 -85v-8q0 -45 -31 -79q-35 -41 -92 -41q-43 0 -82 31l-584 549q-6 -6 -8 -7v-452q0 -51 -35 -86 t-86 -35q-52 0 -87.5 35t-35.5 86z" />
<glyph unicode="L" horiz-adv-x="1110" d="M92 115q0 -49 37 -86q35 -35 84 -35h2l723 8q51 0 86 36t35 87q-2 50 -37 84.5t-84 34.5h-2l-602 -6v1189q0 51 -35 86t-86 35q-50 0 -85.5 -35t-35.5 -86v-1312z" />
<glyph unicode="M" horiz-adv-x="1511" d="M92 123v1304v5v6v6q0 1 1 3t1 3v6q2 2 2 6q0 1 1 3t1 3t1 2.5t1 2.5t1 3t1 3q2 2 2 6l5 4q0 1 1 3t1 3l4 4q0 2 4 6q0 1 1 2t1 2l6 4q0 5 4 5q0 4 4 4l4 4q2 2 4 2q0 2 2 2q0 1 2 2t3 2q1 0 3 1t3 1l4 4q4 0 6 2q1 0 3 1t3 1t3 1t3 1q2 0 4 2q4 0 8 2h5q4 0 8 2h4h8h4h8 q2 0 4 -2h7q4 0 6 -2h6q2 -2 6 -2q2 -2 6 -2q2 -2 4 -2l6 -4q4 0 4 -2q3 0 7 -4l4 -2l6 -4l4 -4q2 0 6 -4q0 -1 1 -2.5t1 -2.5l4 -4q4 -4 4 -6q2 0 4 -2l443 -608l444 608q0 2 2 2q0 2 4 6l4 4l5 5l4 4l4 4q1 1 3 2t3 2q1 0 2 1t2 1q4 4 6 4q2 2 4 2l6 4q5 0 7 2q2 0 4 2 q4 0 6 2h6q2 2 6 2h6q2 2 6 2h6h5h2h8h4q2 -2 6 -2h6q2 -2 6 -2l4 -2q2 0 5 -1t4 -1q2 -2 4 -2q2 -2 6 -2l6 -4q2 -2 4 -2l6 -4l2 -2l2 -2q4 0 4 -4q3 0 7 -4l4 -5l4 -4q0 -1 1 -2t1 -2q4 -4 4 -6l4 -4q0 -2 4 -6q0 -2 2 -4q0 -1 1 -3t1 -3q2 -2 2 -6q2 -2 2 -5q2 -2 2 -6 q0 -1 1 -3t1 -3q0 -4 2 -6v-6v-6v-6q0 -1 1.5 -2.5t1.5 -2.5v-1304q0 -52 -37 -88.5t-88 -36.5q-53 0 -89 36t-36 89v924l-320 -439q-38 -51 -100 -51q-60 0 -101 51l-319 439v-924q0 -53 -36 -89t-89 -36q-51 0 -87 36.5t-36 88.5z" />
<glyph unicode="N" horiz-adv-x="1439" d="M92 123v1304v3v8q2 0 2 4v6q0 4 2 6v6q2 2 2 6l2 4q0 1 1 3.5t1 3.5l4 6q0 3 3 6q0 2 4 6q0 2 2 4l4 4l2 4l6 6q2 3 4 5l4 4l4 4h2l2 2q4 4 7 4l4 4q1 0 3 1t3 1q2 2 6 2l6 4q2 0 4 2q4 0 6 2h6q2 2 7 2h6q2 2 6 2h6h4h2h6h6q2 -2 7 -2h6l4 -2l8 -2q2 -2 4 -2q1 0 3 -1 t3 -1t3 -1t3 -1l4 -4q1 0 3.5 -1t3.5 -1l4 -4q2 0 6 -4q1 0 2 -1t2 -1l4 -4l4 -4l4 -5q4 -4 4 -6q2 0 2 -2l783 -1016v940q0 53 36 89t89 36q51 0 88 -36.5t37 -88.5v-1304l-2 -2v-8v-4v-7q-3 -3 -3 -6q0 -4 -2 -6v-6l-2 -4l-4 -6q0 -4 -2 -6q0 -1 -1 -3.5t-1 -3.5l-4 -6 q-2 -2 -2 -4l-4 -4l-4 -4q0 -2 -4 -6l-4 -4l-4 -4q-5 0 -5 -4h-2l-2 -2q-1 -1 -16 -11q-3 -1 -8 -4t-8 -4h-2q-12 -4 -19 -4h-4q-4 -2 -16 -2h-15l-2 2h-10q-2 2 -4 2t-5 1t-5 1q-2 2 -4 2q-3 0 -7 4q-4 0 -6 2q-2 0 -6 4q-4 0 -4 2q-6 3 -8 5l-4 4l-8 8l-2 2q-2 1 -9 8v2 l-782 1016v-940q0 -52 -37 -88.5t-88 -36.5q-53 0 -89 36t-36 89z" />
<glyph unicode="O" horiz-adv-x="1738" d="M92 780q0 -158 61.5 -302.5t165.5 -248.5t248.5 -165.5t302.5 -61.5t301.5 61.5t248 165.5t166 247.5t61.5 301.5t-61.5 302.5t-166 248.5t-248 165.5t-301.5 61.5t-302.5 -61.5t-248.5 -165.5t-165.5 -247.5t-61.5 -301.5zM340 780q0 143 71 265t193 193t266 71 q143 0 265 -71t193 -193t71 -265q0 -144 -71 -266t-193 -193t-265 -71q-144 0 -266 71t-193 193t-71 266z" />
<glyph unicode="P" horiz-adv-x="1175" d="M92 125v1300q0 47 34 82.5t81 38.5v13h467q90 0 173 -38t143.5 -101.5t97 -151t36.5 -181.5q0 -119 -63.5 -222.5t-171 -164.5t-232.5 -61h-323v-514q0 -51 -35 -86t-86 -35t-86 35t-35 86zM334 883h323q89 0 156.5 61t67.5 143q0 89 -62.5 158.5t-144.5 69.5h-340v-432z " />
<glyph unicode="Q" horiz-adv-x="1718" d="M92 772q0 155 61 297t163.5 244.5t244.5 163.5t297 61q156 0 298.5 -61t245 -163.5t163.5 -244.5t61 -297q0 -256 -156 -461l119 -116q36 -36 36 -87t-36 -88q-33 -36 -86 -36t-86 36l-123 121q-199 -137 -436 -137q-155 0 -297 61t-244.5 163.5t-163.5 245t-61 298.5z M336 772q0 -106 41.5 -203t111.5 -166.5t166.5 -111t202.5 -41.5q138 0 256 67l-147 148q-35 35 -35 86t35 86q35 37 86 37t88 -35l153 -154q86 133 86 287q0 106 -41.5 202.5t-111 166.5t-166.5 111.5t-203 41.5t-202.5 -41.5t-166.5 -111.5t-111.5 -166.5t-41.5 -202.5z " />
<glyph unicode="R" horiz-adv-x="1216" d="M92 123v1298q0 47 34 82.5t81 38.5v12h467q120 0 223.5 -64t164 -172.5t60.5 -234.5q0 -132 -76.5 -242t-199.5 -163l264 -500q14 -27 14 -55q0 -17 -6 -37q-15 -48 -59 -72q-25 -14 -58 -14t-62 17.5t-44 48.5l-301 571h-260v-514q0 -51 -35 -86t-86 -35t-86 35t-35 86z M334 879h323q89 0 156.5 61t67.5 143q0 91 -62.5 159.5t-144.5 68.5h-340v-432z" />
<glyph unicode="S" horiz-adv-x="1261" d="M93 317q4 50 42 84q34 28 77 28h11q50 -4 82 -42q67 -79 179 -117q77 -27 156 -27q34 0 69 5q83 12 148 59.5t69 120.5v11q0 63 -44 115q-48 58 -122 75q-41 10 -135 14q-55 3 -84.5 6t-78.5 11.5t-91.5 26t-81.5 44.5q-112 76 -162 203q-30 76 -30 150q0 50 14 100 q37 133 149 227.5t258 116.5q49 7 99 7q93 0 185 -24q142 -37 251 -122q39 -31 45 -81q1 -9 1 -18q0 -40 -26 -73q-31 -39 -81 -45q-8 -1 -17 -1q-41 0 -74 25q-69 56 -163 80q-60 16 -119 15q-34 0 -68 -5q-73 -11 -130.5 -57.5t-74.5 -110.5q-5 -18 -5 -37q0 -33 16 -66 q25 -52 71 -83q36 -25 82.5 -33t126.5 -12q122 -9 176 -21q161 -35 263 -165q94 -119 93 -262v-25q-5 -86 -44.5 -160t-101 -123.5t-133 -81.5t-147.5 -43q-49 -6 -100 -6q-152 0 -291 60.5t-231 168.5q-28 34 -28 77v11z" />
<glyph unicode="T" horiz-adv-x="1298" d="M51 1427q0 51 36 87t87 36h950q51 0 87 -36t36 -87q0 -52 -36 -88t-87 -36h-352v-1182q0 -52 -36 -88.5t-87 -36.5q-53 0 -89 36t-36 89v1182h-350q-51 0 -87 36t-36 88z" />
<glyph unicode="U" horiz-adv-x="1345" d="M92 537q0 -126 51 -231t134 -171.5t185.5 -102.5t209.5 -36q86 0 169 22t157.5 68t131.5 109t90 151.5t33 190.5v888q0 53 -36.5 89t-88.5 36q-53 0 -90 -36.5t-37 -88.5v-888q0 -90 -48.5 -157t-122 -98.5t-158.5 -31.5q-131 0 -229.5 77t-98.5 210v888q0 52 -37 88.5 t-90 36.5t-89 -36t-36 -89v-888z" />
<glyph unicode="V" horiz-adv-x="1486" d="M71 1456q19 48 66 68q24 10 47 10t46 -9q47 -19 69 -65l444 -1030l447 1030q20 46 68 65q23 9 46 9q24 0 48 -10q46 -20 64 -68q9 -23 9 -45q0 -25 -10 -49l-559 -1290v-2q-7 -14 -8 -15v-2q-2 -4 -10 -12q0 -2 -2 -2q-3 -6 -11 -10v-2q-6 -6 -12 -9l-4 -4q-8 -4 -12 -4 l-2 -2l-2 -2q-2 -1 -6.5 -2t-6.5 -2h-4q-2 -1 -6 -2t-6 -2h-4q-3 0 -8.5 -1t-8.5 -1l-14 2h-4q-2 1 -7 2t-7 2h-2q-2 1 -7 2t-8 2v2q-2 0 -4 2q-6 0 -10 4l-4 4q-6 3 -12 9l-2 2q-1 1 -5 4.5t-6 5.5q0 2 -2 2q-4 4 -8 12l-2 2q-1 2 -3 7.5t-3 7.5q-2 0 -2 2l-559 1290 q-10 24 -10 48q0 23 9 46z" />
<glyph unicode="W" horiz-adv-x="1880" d="M96 1384q-4 16 -4 31q0 33 18 63q26 44 76 56q15 3 29 3q35 0 65 -19q44 -27 56 -76l231 -969l262 520q36 65 111 68q34 0 64 -18.5t45 -47.5l280 -524l215 969q10 50 54 78q31 20 66 19q14 0 28 -3q50 -10 78 -54q20 -31 19 -66q0 -14 -3 -28l-289 -1296q-1 -2 -2 -6 t-2 -7t-2 -5v-2q-1 -3 -4 -8.5t-4 -8.5l-2 -2q-1 -5 -11 -14l-2 -2q-8 -8 -14 -12q0 -3 -2 -3q-2 -2 -14 -10h-2v-2l-17 -6h-2l-18 -6h-2q-3 0 -9.5 -1t-9.5 -1h-2q-8 0 -12 2h-2q-6 0 -10 2h-2h-4q-2 2 -7 2q-1 0 -3 1t-3 1q0 2 -4 2l-6 4q-4 0 -4 2q-1 0 -3 1t-3 1l-4 4 q-2 0 -6 4q-1 0 -2.5 1.5t-2.5 1.5l-4 4q-4 4 -6 4q0 1 -1 3t-1 3q-4 0 -4 4l-4 4l-4 6q0 2 -4 6q0 2 -2 2l-326 611l-307 -609q-2 0 -2 -2l-6 -10q-2 -2 -2 -4q-9 -9 -11 -10l-2 -2l-10 -10q-2 -1 -2 -3l-12 -8l-15 -8h-2q-8 -4 -12 -4q-2 0 -4 -2h-2q-1 0 -4 -1t-4 -1h-6 q-4 -2 -15 -2q-3 0 -9 1t-9 1h-4q-12 4 -17 4l-2 2l-14 6h-2q-2 2 -4 2q-2 2 -7 5t-7 5q-6 4 -15 13l-2 2q-2 3 -5.5 7.5t-4.5 6.5q-2 2 -2 4q-4 3 -8 17h-2q-1 3 -3.5 9t-3.5 9v2z" />
<glyph unicode="X" horiz-adv-x="1613" d="M92 1402q2 50 41 85q34 32 82 32h5q52 -2 85 -40l500 -551l506 557q35 38 85 41h8q45 0 79 -31q37 -35 39 -85q0 -3 1 -7q0 -46 -32 -82l-522 -573l508 -560q31 -34 31 -79v-9q-3 -50 -40 -84q-38 -30 -84 -30q-54 0 -90 39l-489 540l-486 -532q-35 -41 -90 -41 q-43 0 -82 31q-37 35 -39 85q0 3 -1 7q0 46 32 82l500 551l-514 567q-33 35 -33 81v6z" />
<glyph unicode="Y" horiz-adv-x="1267" d="M54 1428q6 50 46 81q33 24 72 24q10 0 19 -1q50 -7 81 -47l437 -576l442 561q31 40 81 46q9 1 17 1q40 0 74 -26q40 -32 45 -82q1 -8 1 -15q0 -41 -26 -75l-516 -651v-551q0 -51 -34.5 -86t-85.5 -35t-87 35t-36 86v551l-506 669q-26 33 -26 73q0 9 2 18z" />
<glyph unicode="Z" horiz-adv-x="1517" d="M109 138q-1 -9 -1 -18q0 -26 11 -50q15 -32 45.5 -51t66.5 -19h1049q51 0 87 35.5t36 87.5q0 50 -36 85.5t-87 35.5h-788l905 1091q23 25 27 61q1 7 1 15q0 27 -12 53q-15 33 -45.5 52.5t-67.5 19.5h-1050q-50 0 -85.5 -36t-35.5 -87t35.5 -87t85.5 -36h792l-905 -1091 q-23 -25 -28 -61z" />
<glyph unicode="a" horiz-adv-x="1187" d="M41 520q0 134 66.5 248t180.5 181t249 67q168 0 313 -119v10q0 49 29.5 83t78.5 34q50 0 84.5 -34.5t34.5 -82.5v-784q0 -48 -34.5 -82.5t-84.5 -34.5q-49 0 -78.5 34t-29.5 83v24q-139 -120 -313 -120q-205 0 -350.5 144.5t-145.5 348.5zM279 520q0 -105 76 -179.5 t182 -74.5q105 0 180.5 74.5t75.5 179.5t-75.5 180.5t-180.5 75.5q-106 0 -182 -75t-76 -181z" />
<glyph unicode="b" horiz-adv-x="1177" d="M72 129v1303q0 51 36.5 87.5t88.5 36.5q51 0 86.5 -36.5t35.5 -87.5v-480q136 86 289 86q140 0 259.5 -69t189 -188.5t69.5 -260.5t-69.5 -260.5t-189 -188.5t-259.5 -69q-164 0 -293 90q-12 -37 -44.5 -61.5t-73.5 -24.5q-52 0 -88.5 36t-36.5 87zM338 520 q0 -112 79 -191t191 -79q111 0 191 79t80 191t-80 191.5t-191 79.5q-112 0 -191 -79t-79 -192z" />
<glyph unicode="c" horiz-adv-x="1062" d="M82 510q6 -211 158 -360q150 -144 356 -144h8q197 3 340 137q37 35 39 86v5q0 48 -33 83q-34 37 -85 39q-3 0 -7 1q-47 0 -80 -33q-78 -72 -180 -72h-8q-104 0 -180 76q-82 76 -82 186v8q0 104 73 183q81 81 189 81q112 0 190 -75q36 -34 85 -34h3q51 1 86 38 q34 34 34 84q0 53 -38 88q-148 145 -356 145h-8q-103 -3 -196 -44t-163 -114q-145 -145 -145 -355v-9z" />
<glyph unicode="d" horiz-adv-x="1146" d="M20 518q0 140 70 259.5t189.5 189t259.5 69.5q152 0 288 -86v480q0 51 36 87.5t87 36.5q52 0 88.5 -36.5t36.5 -87.5v-1303q0 -51 -36.5 -87t-88.5 -36q-41 0 -74 24t-45 62q-129 -90 -292 -90q-140 0 -259.5 69t-189.5 188.5t-70 260.5zM268 518q0 -112 79 -191t192 -79 t191.5 79t78.5 191t-78.5 191t-191.5 79t-192 -79t-79 -191z" />
<glyph unicode="e" horiz-adv-x="1060" d="M31 508q0 139 68 257t186 187.5t258 69.5q49 0 90 -8q104 -20 190 -81.5t142 -154.5q65 -112 65 -189v-11q0 -20 -16 -60q-13 -32 -39.5 -53t-61.5 -21h-630q22 -89 94 -147.5t166 -58.5q54 0 116 20.5t99 56.5q37 35 88 35t86 -37q36 -34 36 -84q0 -54 -38 -90 q-78 -76 -182.5 -110.5t-204.5 -34.5q-140 0 -258 68.5t-186 187t-68 258.5zM317 651h435q-31 59 -85.5 91t-123.5 32q-70 0 -129.5 -32.5t-96.5 -90.5z" />
<glyph unicode="f" horiz-adv-x="702" d="M82 135v4v490v528q0 169 120 288.5t287 119.5q159 0 277 -109q39 -36 39 -91q0 -50 -33 -85q-35 -37 -86 -38q-3 -1 -5 -1q-49 0 -85 33q-46 43 -107 43q-64 0 -109.5 -47t-45.5 -113v-254h194q51 0 88 -36t37 -87q0 -52 -37 -88.5t-88 -36.5h-194v-520q0 -51 -37.5 -88 t-89.5 -37q-51 0 -88 37t-37 88z" />
<glyph unicode="g" horiz-adv-x="1212" d="M72 516q0 139 69 257t187.5 186.5t257.5 68.5q145 0 266 -76q14 38 46.5 62t72.5 24q52 0 88.5 -37t36.5 -88v-927q0 -143 -70.5 -265t-192 -193t-264.5 -71q-116 0 -220 47.5t-179 135.5q-29 35 -29 80v12q4 52 43 84q34 31 79 31h11q52 -4 86 -44q79 -94 209 -94 q115 0 196 80.5t81 196.5v90q-122 -72 -260 -72q-139 0 -257.5 68.5t-187.5 186.5t-69 257zM324 516q0 -108 77 -185t185 -77q107 0 183.5 77.5t76.5 184.5q0 109 -76.5 185.5t-183.5 76.5q-109 0 -185.5 -76.5t-76.5 -185.5z" />
<glyph unicode="h" horiz-adv-x="1093" d="M82 117v1306q0 51 37 88t88 37q52 0 88.5 -37t36.5 -88v-450q97 51 211 51q190 0 324 -134t134 -325v-448q0 -51 -35.5 -87t-86.5 -36q-52 0 -88.5 36t-36.5 87v448q0 88 -61.5 149.5t-149.5 61.5t-149.5 -61.5t-61.5 -149.5v-448q0 -51 -36.5 -87t-88.5 -36 q-51 0 -88 36t-37 87z" />
<glyph unicode="i" horiz-adv-x="458" d="M102 127q0 -53 37.5 -90t91.5 -37q51 0 88 37.5t37 89.5v791q0 52 -37 88t-88 36q-54 0 -91.5 -36t-37.5 -88v-791zM102 1327q0 -51 37.5 -88t91.5 -37q51 0 88 37t37 88v10q0 53 -37 90t-88 37q-54 0 -91.5 -36.5t-37.5 -90.5v-10z" />
<glyph unicode="j" horiz-adv-x="466" d="M-307 -186v5q0 46 33 79q32 34 82 35h2q48 0 81 -31q39 -39 103 -39q68 0 107.5 49.5t39.5 120.5v475v412q0 48 34.5 82t84.5 34q46 0 80.5 -34.5t34.5 -81.5v-893v-9v-8q0 -159 -111.5 -272t-269.5 -113q-151 0 -262 105q-37 34 -39 84zM117 1327q0 -51 37.5 -88 t91.5 -37q51 0 88 37t37 88v10q0 53 -36.5 90t-88.5 37q-54 0 -91.5 -36.5t-37.5 -90.5v-10z" />
<glyph unicode="k" horiz-adv-x="958" d="M82 117v1304q0 53 36 89t89 36t89 -36t36 -89v-692l403 279q33 22 71 22q11 0 23 -2q51 -8 80 -51q24 -32 24 -71q0 -10 -2 -21q-8 -51 -50 -82l-342 -232l381 -350q37 -35 39 -87v-5q0 -48 -33 -86q-39 -39 -92 -39q-48 0 -84 33l-418 385v-305q0 -53 -36 -89t-89 -36 t-89 36t-36 89z" />
<glyph unicode="l" horiz-adv-x="569" d="M113 360v17v612v443q0 51 36 86.5t87 35.5q52 0 88 -35.5t36 -86.5v-1113q0 -3 -1 -9t-1 -9t1 -9t1 -9q0 -14 10 -24.5t23 -10.5q52 0 88.5 -36t36.5 -87q0 -53 -36 -89t-89 -36q-64 0 -123.5 30t-99.5 81q-27 35 -40 81t-15 77.5t-2 90.5z" />
<glyph unicode="m" horiz-adv-x="1546" d="M82 117v782q0 51 36.5 88t86.5 37q29 0 54.5 -13.5t39.5 -35.5q88 45 188 45q162 0 283 -111q114 111 283 111q165 0 283 -114t118 -273v-6v-9v-495q0 -52 -35 -87.5t-86 -35.5q-52 0 -88.5 35.5t-36.5 87.5v495v9v6q0 59 -45.5 100t-109.5 41q-68 0 -115 -40.5 t-47 -100.5v-6v-9v-495q0 -52 -35.5 -87.5t-85.5 -35.5q-52 0 -87.5 35t-35.5 88v495v9v6q0 60 -47 100.5t-113 40.5t-112.5 -40.5t-46.5 -100.5v-516q0 -50 -35.5 -85.5t-87.5 -35.5q-50 0 -86.5 36t-36.5 85z" />
<glyph unicode="n" horiz-adv-x="1120" d="M82 127v782q0 51 36 87t87 36q39 0 70.5 -23.5t43.5 -60.5q117 74 250 74q198 0 339 -149t141 -359v-387q0 -51 -35 -87t-86 -36q-52 0 -87.5 36t-35.5 87v387q0 108 -69.5 185t-166.5 77q-76 0 -132.5 -46.5t-82.5 -113.5t-26 -141v-348q0 -51 -36 -87t-87 -36t-87 36 t-36 87z" />
<glyph unicode="o" horiz-adv-x="1153" d="M61 518q0 -140 69 -258.5t187.5 -187t257.5 -68.5t258 68.5t188.5 186.5t70.5 257q-1 140 -70.5 259t-188.5 188t-258 69t-257.5 -69t-187.5 -187.5t-69 -257.5zM313 518q0 109 76.5 185.5t185.5 76.5t186 -76.5t77 -185.5t-77 -185.5t-186 -76.5t-185.5 76.5 t-76.5 185.5z" />
<glyph unicode="p" horiz-adv-x="1198" d="M92 -401v1302q0 51 36.5 87t88.5 36q41 0 74 -24.5t45 -61.5q129 90 293 90q140 0 259.5 -69t189 -188.5t69.5 -260.5t-69.5 -260.5t-189 -188.5t-259.5 -69q-153 0 -289 86v-479q0 -52 -36 -88.5t-87 -36.5q-53 0 -89 36t-36 89zM358 510q0 -112 79 -191t192 -79 q111 0 190.5 79t79.5 191t-79.5 191t-190.5 79q-113 0 -192 -79t-79 -191z" />
<glyph unicode="q" horiz-adv-x="1228" d="M47 518q0 212 150 362t362 150q155 0 289 -90q11 37 43.5 61.5t73.5 24.5q51 0 86.5 -36t35.5 -87v-1114v-6q3 -15 3 -29t10.5 -24.5t23.5 -10.5q51 0 87 -34.5t36 -85.5t-36 -87t-87 -36q-119 0 -200.5 86.5t-81.5 206.5v323q-133 -86 -283 -86q-212 0 -362 150 t-150 362zM293 518q0 -110 78 -188t188 -78q109 0 187.5 78t78.5 188t-78.5 188t-187.5 78q-110 0 -188 -78t-78 -188z" />
<glyph unicode="r" horiz-adv-x="958" d="M82 123v784q0 51 36 86t87 35q41 0 73 -23.5t44 -60.5q123 76 260 76q194 0 338 -135q37 -35 39 -85v-5q0 -47 -33 -82q-36 -37 -86 -39h-5q-47 0 -83 33q-70 67 -170 67q-104 0 -179 -77.5t-75 -186.5v-387q0 -51 -36 -87t-87 -36t-87 36t-36 87z" />
<glyph unicode="s" horiz-adv-x="874" d="M74 662q6 -80 63.5 -153t136.5 -99q66 -23 162 -23q70 0 88 -10q17 -7 31 -22.5t14 -35.5q0 -38 -32 -57q-36 -23 -82 -23q-5 1 -9 1q-52 2 -96.5 18t-64.5 35q-34 32 -82 32h-5q-52 -2 -85 -40q-33 -35 -33 -82v-5q2 -50 39 -85q53 -50 144 -83.5t186 -33.5 q128 0 223 61q66 44 103.5 114t37.5 148q0 89 -50.5 166t-135.5 115q-10 5 -20.5 8.5l-19.5 6.5t-21 5.5t-19.5 4t-20 3t-18.5 2t-19 1.5t-17.5 1t-17.5 1t-16 0q-64 0 -84 6q-11 4 -23 19t-14 24q-3 31 14 51.5t44 26.5t57 8t53 -4q35 -6 86 -41q23 -15 54 -18q8 -1 15 -1 q53 0 89 39q32 34 32 81q-1 2 -1 6q-2 50 -39 85q-77 71 -195 91q-39 6 -79 6q-55 0 -111 -12q-98 -20 -170 -85q-93 -89 -93 -222q0 -15 1 -31z" />
<glyph unicode="t" horiz-adv-x="690" d="M-8 924q0 51 36 87t87 36h88v391q0 51 36 87t87 36t87 -36t36 -87v-391h67q51 0 87 -36t36 -87t-36 -87t-87 -36h-67v-488q1 -5 2 -17t3.5 -21.5t8.5 -14.5q8 -8 43 -8q51 0 87 -36t36 -87q0 -52 -36 -87.5t-87 -35.5q-35 0 -53 2q-114 17 -181 92q-31 35 -50 86.5 t-19 98.5v516h-88q-51 0 -87 36t-36 87z" />
<glyph unicode="u" horiz-adv-x="1136" d="M82 508q0 -139 65.5 -257.5t177 -187.5t242.5 -69q132 0 244.5 69t178 187.5t65.5 257.5v375q0 52 -34.5 87.5t-82.5 35.5q-44 0 -85.5 -36.5t-41.5 -86.5v-375q0 -111 -70 -188.5t-174 -77.5q-92 0 -166.5 79t-74.5 187v391q0 50 -39.5 86.5t-89.5 36.5q-47 0 -81 -36 t-34 -87v-391z" />
<glyph unicode="v" horiz-adv-x="1091" d="M47 934q-7 -20 -7 -40q0 -27 13 -54l385 -768q15 -31 44 -49.5t63 -18.5h2q34 0 62.5 18.5t43.5 49.5l385 753q14 26 14 54q0 19 -6 37q-16 48 -61 71q-26 14 -54 14q-19 -1 -37 -7q-48 -16 -71 -60l-276 -539l-277 553q-23 46 -70 62q-20 7 -39 7q-26 0 -52 -13 q-46 -22 -62 -70z" />
<glyph unicode="w" horiz-adv-x="1550" d="M82 377v8v8v498q0 51 36 87t87 36t87 -36t36 -87v-498v-8v-8q0 -59 46.5 -100t112.5 -41t113 41.5t47 99.5v8v8v498q0 51 36 87t87 36t87 -36t36 -87v-498v-8v-8q0 -58 47 -99.5t113 -41.5t112.5 41t46.5 100v518q0 51 36 87t87 36t87 -36t36 -87v-518v-12 q-6 -156 -123.5 -265.5t-281.5 -109.5q-163 0 -283 110q-120 -110 -283 -110q-167 0 -286 113.5t-119 273.5z" />
<glyph unicode="x" horiz-adv-x="1128" d="M109 983q34 34 82 34h3q50 -1 85 -36l282 -295l289 299q34 35 84 36h2q48 0 84 -34q35 -33 36 -83v-3q0 -48 -34 -84l-293 -305l293 -303q33 -34 33 -81q-1 -2 -1 -4q-2 -50 -36 -85q-33 -33 -84 -33q-49 0 -86 37l-287 297l-282 -293q-34 -37 -86 -37q-48 0 -84 33 q-36 36 -37 85v3q0 47 34 82l289 299l-291 301q-33 36 -33 84q0 51 38 86z" />
<glyph unicode="y" horiz-adv-x="1095" d="M61 526v367q0 50 35 86.5t84 36.5t84 -36.5t35 -86.5v-367q0 -106 68 -182t163 -76q97 0 165.5 76t68.5 182v371q0 51 35.5 87t83.5 36q51 0 86 -36t35 -87v-895q0 -140 -68 -259.5t-184 -189t-252 -69.5q-110 0 -209.5 47t-171.5 133q-29 34 -29 79v10q4 51 41 85 q33 30 76 30h11q49 -4 81 -44q38 -44 91 -69t110 -25q109 0 186.5 80t77.5 192v84q-110 -63 -234 -63q-127 0 -235 67t-171 183t-63 253z" />
<glyph unicode="z" horiz-adv-x="1142" d="M82 901q0 -51 36 -87t87 -36h467l-555 -575q-26 -27 -33 -63q-2 -11 -2 -23q0 -24 10 -47q13 -33 44.5 -53.5t68.5 -20.5h753q51 0 87 35t36 86t-36 87t-87 36h-466l555 577q27 25 33 61q2 11 1 22q0 24 -10 48q-14 34 -45 55t-68 21h-753q-51 0 -87 -36t-36 -87z" />
<glyph unicode="&#xad;" d="M102 504q0 -55 39 -94t95 -39h716q55 0 94 38.5t41 94.5q-2 56 -41 94.5t-94 38.5h-716q-56 0 -95 -39t-39 -94z" />
<glyph unicode="&#x2000;" horiz-adv-x="802" />
<glyph unicode="&#x2001;" horiz-adv-x="1604" />
<glyph unicode="&#x2002;" horiz-adv-x="802" />
<glyph unicode="&#x2003;" horiz-adv-x="1604" />
<glyph unicode="&#x2004;" horiz-adv-x="534" />
<glyph unicode="&#x2005;" horiz-adv-x="401" />
<glyph unicode="&#x2006;" horiz-adv-x="267" />
<glyph unicode="&#x2007;" horiz-adv-x="267" />
<glyph unicode="&#x2008;" horiz-adv-x="200" />
<glyph unicode="&#x2009;" horiz-adv-x="320" />
<glyph unicode="&#x200a;" horiz-adv-x="89" />
<glyph unicode="&#x2010;" d="M102 504q0 -55 39 -94t95 -39h716q55 0 94 38.5t41 94.5q-2 56 -41 94.5t-94 38.5h-716q-56 0 -95 -39t-39 -94z" />
<glyph unicode="&#x2011;" d="M102 504q0 -55 39 -94t95 -39h716q55 0 94 38.5t41 94.5q-2 56 -41 94.5t-94 38.5h-716q-56 0 -95 -39t-39 -94z" />
<glyph unicode="&#x2012;" d="M102 504q0 -55 39 -94t95 -39h716q55 0 94 38.5t41 94.5q-2 56 -41 94.5t-94 38.5h-716q-56 0 -95 -39t-39 -94z" />
<glyph unicode="&#x2013;" horiz-adv-x="1228" d="M102 504q0 -55 40.5 -94t98.5 -39h745q57 0 97.5 38.5t42.5 94.5q-2 56 -42.5 94.5t-97.5 38.5h-745q-58 0 -98.5 -39t-40.5 -94z" />
<glyph unicode="&#x2014;" horiz-adv-x="2252" d="M102 504q0 -55 81 -94t198 -39h1488q115 0 196 38.5t85 94.5q-4 56 -85 94.5t-196 38.5h-1488q-117 0 -198 -39t-81 -94z" />
<glyph unicode="&#x202f;" horiz-adv-x="320" />
<glyph unicode="&#x205f;" horiz-adv-x="401" />
<glyph unicode="&#x25fc;" horiz-adv-x="1024" d="M0 0v1024h1024v-1024h-1024z" />
</font>
</defs>
</svg>
